<svg width="167" height="175" viewBox="0 0 167 175" fill="none" xmlns="http://www.w3.org/2000/svg">
<path d="M56.5501 92.9981C43.5437 95.4041 33.3011 106.275 30.9901 120.075C28.6405 106.313 18.4202 95.4194 5.4499 93.0019C18.456 90.5959 28.6988 79.7254 31.0099 65.9253C33.3594 79.687 43.5798 90.5806 56.5501 92.9981Z" stroke="#655F5F"/>
<path d="M97.9874 91.0151C94.855 69.3186 77.7168 52.1109 56.0561 49.002C77.7743 45.9086 94.9482 28.743 98.0125 6.98518C101.145 28.6816 118.283 45.8891 139.944 48.998C118.225 52.0914 101.052 69.2571 97.9874 91.0151Z" stroke="#655F5F"/>
<path d="M125.989 168.603C123.187 150.848 109.18 136.786 91.4555 134.002C109.228 131.232 123.264 117.202 126.011 99.3975C128.813 117.152 142.82 131.214 160.544 133.998C142.772 136.768 128.736 150.798 125.989 168.603Z" stroke="#655F5F"/>
</svg>
